<svg version="1.1" xmlns="http://www.w3.org/2000/svg" viewBox="0 0 604.6894601126629 629.1936345171703" width="1209.3789202253258" height="1258.3872690343405">
  <!-- svg-source:excalidraw -->
  
  <defs>
    <style class="style-fonts">
      @font-face {
        font-family: "Virgil";
        src: url("https://excalidraw.com/Virgil.woff2");
      }
      @font-face {
        font-family: "Cascadia";
        src: url("https://excalidraw.com/Cascadia.woff2");
      }
      @font-face {
        font-family: "Assistant";
        src: url("https://excalidraw.com/Assistant-Regular.woff2");
      }
    </style>
    
  </defs>
  <rect x="0" y="0" width="604.6894601126629" height="629.1936345171703" fill="#ffffff"></rect><g stroke-linecap="round" transform="translate(10.437075298476202 10.52240989586494) rotate(360.1028684309661 291.19140625 243.70424548909895)"><path d="M32 0 C155.7 1.14, 280.08 1.16, 550.38 0 M32 0 C223.72 0.36, 415.84 -0.09, 550.38 0 M550.38 0 C573.27 0.6, 582.99 11.65, 582.38 32 M550.38 0 C569.78 -1.7, 581.3 11.01, 582.38 32 M582.38 32 C584.28 124.96, 585.3 220.2, 582.38 455.41 M582.38 32 C580.57 185.45, 581.43 337.86, 582.38 455.41 M582.38 455.41 C581.23 476.79, 571.35 486.64, 550.38 487.41 M582.38 455.41 C583.32 477.94, 570.66 487.48, 550.38 487.41 M550.38 487.41 C390.86 486.17, 229.7 485.23, 32 487.41 M550.38 487.41 C398.58 488.97, 246.72 488.98, 32 487.41 M32 487.41 C12.04 487.44, -0.44 478.62, 0 455.41 M32 487.41 C11.9 487.29, 0.98 478.19, 0 455.41 M0 455.41 C-2.17 355.1, -2.54 255.9, 0 32 M0 455.41 C-0.5 346.75, -0.1 238.78, 0 32 M0 32 C-1.41 9.97, 10.17 1.11, 32 0 M0 32 C-0.97 8.84, 9.19 -2.25, 32 0" stroke="#1e1e1e" stroke-width="1" fill="none"></path></g><g stroke-linecap="round" transform="translate(37.31347463122995 403.28723973227187) rotate(360.1028684309661 79.703125 30.453125)"><path d="M15.23 0 C51.18 1.97, 87.16 0.19, 144.18 0 M15.23 0 C42.29 -1.63, 69.97 -0.64, 144.18 0 M144.18 0 C153.27 1.42, 159.36 4.47, 159.41 15.23 M144.18 0 C154.35 1.27, 158.67 3.59, 159.41 15.23 M159.41 15.23 C161.47 21.12, 161.56 30.97, 159.41 45.68 M159.41 15.23 C159.49 24.36, 160.27 33.36, 159.41 45.68 M159.41 45.68 C160.17 57.32, 155.09 60.16, 144.18 60.91 M159.41 45.68 C161.31 54, 154.78 61.22, 144.18 60.91 M144.18 60.91 C104.31 61.16, 67.12 62.82, 15.23 60.91 M144.18 60.91 C110.31 59.84, 74.75 59.36, 15.23 60.91 M15.23 60.91 C6.78 60.93, -1.77 56.83, 0 45.68 M15.23 60.91 C3.73 59.75, -1.1 57.58, 0 45.68 M0 45.68 C-0.52 36.85, -1.65 26, 0 15.23 M0 45.68 C-0.63 34.69, 0.56 22.41, 0 15.23 M0 15.23 C-1.29 3.2, 5.41 -0.19, 15.23 0 M0 15.23 C2.08 7.13, 6.54 0.97, 15.23 0" stroke="#1e1e1e" stroke-width="2" fill="none"></path></g><g transform="translate(89.69662282458933 421.24036473227187) rotate(360.1028684309661 27.319976806640625 12.5)"><text x="27.319976806640625" y="0" font-family="Virgil, Segoe UI Emoji" font-size="20px" fill="#1e1e1e" text-anchor="middle" style="white-space: pre;" direction="ltr" dominant-baseline="text-before-edge">PNPM</text></g><g stroke-linecap="round" transform="translate(221.87822048748376 404.51576160505533) rotate(360.1028684309661 78.98828125 30.314453125)"><path d="M15.16 0 C61.21 -0.08, 103.12 2.75, 142.82 0 M15.16 0 C41.6 -0.71, 69.04 -1.6, 142.82 0 M142.82 0 C151.64 0.63, 158.09 3.61, 157.98 15.16 M142.82 0 C151.52 -1.34, 159.72 5.9, 157.98 15.16 M157.98 15.16 C156.25 24.02, 159.09 32.07, 157.98 45.47 M157.98 15.16 C157.5 25.36, 157.84 34.23, 157.98 45.47 M157.98 45.47 C159.93 55.04, 154.78 62.19, 142.82 60.63 M157.98 45.47 C158.62 55.32, 154.97 60.82, 142.82 60.63 M142.82 60.63 C99.77 60.38, 55.65 58.95, 15.16 60.63 M142.82 60.63 C92.88 62.09, 41.09 60.85, 15.16 60.63 M15.16 60.63 C6.8 59.7, 0.54 57.17, 0 45.47 M15.16 60.63 C3.76 60.66, -1.79 54.55, 0 45.47 M0 45.47 C-1.67 34.76, 0.36 20.21, 0 15.16 M0 45.47 C0.37 36.44, 1.02 28.38, 0 15.16 M0 15.16 C-1.49 3.25, 5.43 -2, 15.16 0 M0 15.16 C-0.62 6, 3.28 0.02, 15.16 0" stroke="#1e1e1e" stroke-width="2" fill="none"></path></g><g transform="translate(273.7665185221517 422.33021473005533) rotate(360.1028684309661 27.09998321533203 12.5)"><text x="27.09998321533203" y="0" font-family="Virgil, Segoe UI Emoji" font-size="20px" fill="#1e1e1e" text-anchor="middle" style="white-space: pre;" direction="ltr" dominant-baseline="text-before-edge">Lerna</text></g><g stroke-linecap="round" transform="translate(403.38889700417826 404.41114495461017) rotate(360.1028684309661 85.0625 31.16796875)"><path d="M15.58 0 C51.39 0, 86.05 0.04, 154.54 0 M15.58 0 C62.19 0.77, 109.75 0.27, 154.54 0 M154.54 0 C165.62 1.04, 170.53 4.14, 170.13 15.58 M154.54 0 C166.16 0.7, 170.29 7.06, 170.13 15.58 M170.13 15.58 C168.98 25.38, 171.63 36.62, 170.13 46.75 M170.13 15.58 C171.23 27.72, 169.64 39.29, 170.13 46.75 M170.13 46.75 C171.07 56.58, 164.16 64.07, 154.54 62.34 M170.13 46.75 C171.25 58.29, 164.23 62.26, 154.54 62.34 M154.54 62.34 C104.14 62.8, 57.51 59.98, 15.58 62.34 M154.54 62.34 C112.74 62.97, 71.92 63.84, 15.58 62.34 M15.58 62.34 C6.26 60.92, 1.1 57.61, 0 46.75 M15.58 62.34 C5.31 64.42, -1.19 56.53, 0 46.75 M0 46.75 C-0.66 36.09, 0.69 21.67, 0 15.58 M0 46.75 C0.24 34.58, 0.19 23.38, 0 15.58 M0 15.58 C0.77 6.46, 4.51 -1.58, 15.58 0 M0 15.58 C-1.55 3.49, 6.69 1.84, 15.58 0" stroke="#1e1e1e" stroke-width="2" fill="none"></path></g><g transform="translate(412.2814598703892 423.07911370461017) rotate(360.1028684309661 76.16993713378906 12.5)"><text x="76.16993713378906" y="0" font-family="Virgil, Segoe UI Emoji" font-size="20px" fill="#1e1e1e" text-anchor="middle" style="white-space: pre;" direction="ltr" dominant-baseline="text-before-edge">Lerna-changelog</text></g><g stroke-linecap="round" transform="translate(43.634418249632404 201.0589217768828) rotate(360.1028684309661 85.640625 30)"><path d="M15 0 C58.5 1.84, 105.94 -1.01, 156.28 0 M15 0 C46.15 0.36, 77.81 1.53, 156.28 0 M156.28 0 C167.51 -0.26, 170.74 3.5, 171.28 15 M156.28 0 C166.85 1.94, 173.11 4.98, 171.28 15 M171.28 15 C170.16 20.5, 172.13 27.48, 171.28 45 M171.28 15 C172.41 27.44, 172.22 38.98, 171.28 45 M171.28 45 C171.09 54.3, 165.26 58.11, 156.28 60 M171.28 45 C170.2 57.14, 166.44 61.19, 156.28 60 M156.28 60 C102.17 61.77, 46.2 60.23, 15 60 M156.28 60 C118.43 59.38, 81.06 58.32, 15 60 M15 60 C5.51 59.21, -0.23 55.67, 0 45 M15 60 C5.65 59.14, 1.04 54.1, 0 45 M0 45 C-1.64 35.87, -1.5 21.36, 0 15 M0 45 C0.77 37.44, 0.45 31.19, 0 15 M0 15 C-1.59 3.59, 4.17 -1.56, 15 0 M0 15 C0.37 3.39, 3.65 1.18, 15 0" stroke="#1e1e1e" stroke-width="2" fill="none"></path></g><g transform="translate(77.84509635021834 218.5589217768828) rotate(360.1028684309661 51.42994689941406 12.5)"><text x="51.42994689941406" y="0" font-family="Virgil, Segoe UI Emoji" font-size="20px" fill="#1e1e1e" text-anchor="middle" style="white-space: pre;" direction="ltr" dominant-baseline="text-before-edge">CodeMirror</text></g><g stroke-linecap="round" transform="translate(235.81452177079245 199.33384536562562) rotate(360.1028684309661 77.048828125 30.5703125)"><path d="M15.29 0 C48.24 1.41, 86.7 -0.99, 138.81 0 M15.29 0 C44.62 -0.15, 73.03 -1.64, 138.81 0 M138.81 0 C149.16 -1.11, 152.64 3.17, 154.1 15.29 M138.81 0 C150.9 -0.43, 156.29 6.86, 154.1 15.29 M154.1 15.29 C152.9 26.79, 152.4 33.81, 154.1 45.86 M154.1 15.29 C154.2 23.15, 153.39 32.22, 154.1 45.86 M154.1 45.86 C152.44 54.9, 148.87 60.28, 138.81 61.14 M154.1 45.86 C151.82 54.49, 146.99 61.13, 138.81 61.14 M138.81 61.14 C113.85 61.61, 88.3 58.35, 15.29 61.14 M138.81 61.14 C109.49 60.9, 81.36 61.29, 15.29 61.14 M15.29 61.14 C4.21 61.13, 1.11 54.55, 0 45.86 M15.29 61.14 C5.37 60.81, 0.04 54.68, 0 45.86 M0 45.86 C-0.44 34.97, 0.27 25.2, 0 15.29 M0 45.86 C-0.52 33.52, 0.11 21.16, 0 15.29 M0 15.29 C1.05 5.93, 4.9 -1.84, 15.29 0 M0 15.29 C-1.76 6.93, 7.1 0.98, 15.29 0" stroke="#1e1e1e" stroke-width="2" fill="none"></path></g><g transform="translate(280.9733886531167 217.40415786562562) rotate(360.1028684309661 31.88996124267578 12.5)"><text x="31.88996124267578" y="0" font-family="Virgil, Segoe UI Emoji" font-size="20px" fill="#1e1e1e" text-anchor="middle" style="white-space: pre;" direction="ltr" dominant-baseline="text-before-edge">prismjs</text></g><g stroke-linecap="round" transform="translate(11.918848877188907 512.5104981421932) rotate(360.1028684309661 291.33789062500006 53.080078125000014)"><path d="M26.54 0 C232.3 0.06, 437.31 -0.55, 556.14 0 M26.54 0 C169.37 1.51, 312.4 1.09, 556.14 0 M556.14 0 C574.33 -0.79, 582.44 9.52, 582.68 26.54 M556.14 0 C574.48 -0.86, 583.72 7.94, 582.68 26.54 M582.68 26.54 C581.1 48.16, 581.23 64.4, 582.68 79.62 M582.68 26.54 C584.06 38.67, 583.74 52.09, 582.68 79.62 M582.68 79.62 C581.08 95.91, 573 104.6, 556.14 106.16 M582.68 79.62 C583.05 95.71, 572.48 107.34, 556.14 106.16 M556.14 106.16 C412.55 106.83, 268.13 105.78, 26.54 106.16 M556.14 106.16 C434.63 106.37, 313.62 105.97, 26.54 106.16 M26.54 106.16 C7.12 107.52, -1.22 96.23, 0 79.62 M26.54 106.16 C7.03 106.5, 0.21 96.24, 0 79.62 M0 79.62 C0.9 69.43, 0.12 56.4, 0 26.54 M0 79.62 C-0.48 59.43, 0.57 40.74, 0 26.54 M0 26.54 C0.73 9.89, 9.43 -0.35, 26.54 0 M0 26.54 C2.21 10.24, 7.49 -1.29, 26.54 0" stroke="#1e1e1e" stroke-width="1" fill="none"></path></g><g stroke-linecap="round" transform="translate(226.17213002896415 538.7515333535111) rotate(360.1028684309661 79.703125 30.453125)"><path d="M15.23 0 C44.4 0.82, 70.54 0.14, 144.18 0 M15.23 0 C63.39 -1.06, 109.26 -0.3, 144.18 0 M144.18 0 C152.9 -0.08, 158.23 4.81, 159.41 15.23 M144.18 0 C154.86 -0.47, 159.64 3.6, 159.41 15.23 M159.41 15.23 C160 26.04, 158.2 38.52, 159.41 45.68 M159.41 15.23 C160.41 25.56, 159.92 32.95, 159.41 45.68 M159.41 45.68 C159.65 57.48, 155.95 59.03, 144.18 60.91 M159.41 45.68 C158.11 55.91, 152.5 61.74, 144.18 60.91 M144.18 60.91 C103.26 58.46, 59.57 58.22, 15.23 60.91 M144.18 60.91 C117.17 58.71, 89.05 59.76, 15.23 60.91 M15.23 60.91 C5.72 59.42, -0.5 54.62, 0 45.68 M15.23 60.91 C5.33 60.6, -0.1 56.42, 0 45.68 M0 45.68 C-0.51 39.81, 0.98 32.14, 0 15.23 M0 45.68 C-0.69 39.24, 0.64 33.45, 0 15.23 M0 15.23 C1.85 4.31, 6.21 0.3, 15.23 0 M0 15.23 C1.63 5.4, 6.89 -2.03, 15.23 0" stroke="#1e1e1e" stroke-width="2" fill="none"></path></g><g transform="translate(272.8752855465423 556.7046583535111) rotate(360.1028684309661 32.999969482421875 12.5)"><text x="32.999969482421875" y="0" font-family="Virgil, Segoe UI Emoji" font-size="20px" fill="#1e1e1e" text-anchor="middle" style="white-space: pre;" direction="ltr" dominant-baseline="text-before-edge">Docker</text></g><g stroke-linecap="round" transform="translate(413.24374004538356 538.1967743037818) rotate(360.1028684309661 79.703125 30.453125)"><path d="M15.23 0 C53.38 0.23, 89.12 -0.25, 144.18 0 M15.23 0 C51.31 0.01, 85.94 -0.59, 144.18 0 M144.18 0 C154.84 1.68, 159.62 3.14, 159.41 15.23 M144.18 0 C154.48 -0.82, 158.34 5.61, 159.41 15.23 M159.41 15.23 C159.84 26.06, 159.01 39.68, 159.41 45.68 M159.41 15.23 C160.28 24.16, 160.44 34.61, 159.41 45.68 M159.41 45.68 C159.17 55.52, 152.62 61.08, 144.18 60.91 M159.41 45.68 C159.77 55.31, 153.37 62.37, 144.18 60.91 M144.18 60.91 C93.26 62.23, 46.25 62.66, 15.23 60.91 M144.18 60.91 C93.66 62.64, 43.12 62.42, 15.23 60.91 M15.23 60.91 C3.76 60.38, -0.87 57.02, 0 45.68 M15.23 60.91 C6.94 59.62, 2.21 55.16, 0 45.68 M0 45.68 C-0.48 38.55, 0.86 31.18, 0 15.23 M0 45.68 C0.34 33.23, 0.48 22.07, 0 15.23 M0 15.23 C-0.02 6.52, 4.85 1.29, 15.23 0 M0 15.23 C0.85 6.13, 3.93 -0.41, 15.23 0" stroke="#1e1e1e" stroke-width="2" fill="none"></path></g><g transform="translate(466.4268836611062 556.1498993037818) rotate(360.1028684309661 26.519981384277344 12.5)"><text x="26.519981384277344" y="0" font-family="Virgil, Segoe UI Emoji" font-size="20px" fill="#1e1e1e" text-anchor="middle" style="white-space: pre;" direction="ltr" dominant-baseline="text-before-edge">MySql</text></g><g stroke-linecap="round" transform="translate(33.2480273044107 537.6434384554677) rotate(360.1028684309661 79.703125 30.453125)"><path d="M15.23 0 C56.35 -1.01, 93.02 -2.18, 144.18 0 M15.23 0 C49.19 0, 82.79 -0.16, 144.18 0 M144.18 0 C152.44 1.96, 158.01 5.94, 159.41 15.23 M144.18 0 C156.1 1.24, 159.31 3.59, 159.41 15.23 M159.41 15.23 C159.76 27.99, 158.57 37.52, 159.41 45.68 M159.41 15.23 C159.64 27.68, 160.23 38.61, 159.41 45.68 M159.41 45.68 C160.7 56.92, 153.93 60.46, 144.18 60.91 M159.41 45.68 C159.35 55.9, 152.31 60.28, 144.18 60.91 M144.18 60.91 C106.84 60.61, 65.76 59.86, 15.23 60.91 M144.18 60.91 C112.91 61.19, 84.21 61.36, 15.23 60.91 M15.23 60.91 C5.95 58.94, -1.94 54.48, 0 45.68 M15.23 60.91 C2.9 58.64, 1.01 57.8, 0 45.68 M0 45.68 C-1.87 36.83, 0.63 22.31, 0 15.23 M0 45.68 C-0.08 37.08, 0.02 27.62, 0 15.23 M0 15.23 C-1.15 4.07, 6.88 -1.08, 15.23 0 M0 15.23 C-0.76 4.68, 3.17 1.57, 15.23 0" stroke="#1e1e1e" stroke-width="2" fill="none"></path></g><g transform="translate(94.6111635959146 555.5965634554677) rotate(360.1028684309661 18.339988708496094 12.5)"><text x="18.339988708496094" y="0" font-family="Virgil, Segoe UI Emoji" font-size="20px" fill="#1e1e1e" text-anchor="middle" style="white-space: pre;" direction="ltr" dominant-baseline="text-before-edge">Koa</text></g><g stroke-linecap="round" transform="translate(36.121777965525666 297.33241468188373) rotate(360.1028684309661 267.1484375 36.654296875)"><path d="M18.33 0 C217.06 1.66, 415.63 0.67, 515.97 0 M18.33 0 C199.66 -1.75, 380.98 -1.35, 515.97 0 M515.97 0 C526.52 1.83, 535.71 4.76, 534.3 18.33 M515.97 0 C526.23 -0.2, 533.15 7.72, 534.3 18.33 M534.3 18.33 C532.95 30.73, 533.94 45.6, 534.3 54.98 M534.3 18.33 C534.43 30.1, 534.5 44.52, 534.3 54.98 M534.3 54.98 C533.82 65.21, 527.73 73.31, 515.97 73.31 M534.3 54.98 C534.37 65.35, 529.17 71.35, 515.97 73.31 M515.97 73.31 C341.76 73.26, 167.28 73.11, 18.33 73.31 M515.97 73.31 C375.84 74.99, 236.19 74.99, 18.33 73.31 M18.33 73.31 C5.05 73.6, -0.86 66.79, 0 54.98 M18.33 73.31 C7.88 71.69, -0.47 65.56, 0 54.98 M0 54.98 C1.46 46.14, 1.79 32.95, 0 18.33 M0 54.98 C-0.47 44.45, 0.24 34.68, 0 18.33 M0 18.33 C-0.98 5.86, 4.33 -1, 18.33 0 M0 18.33 C1.87 6.36, 4.19 2.21, 18.33 0" stroke="#1e1e1e" stroke-width="2" fill="none"></path></g><g transform="translate(215.15830178810165 322.89868624054003) rotate(360.1028684309661 85.85991668701172 12.5)"><text x="0" y="0" font-family="Virgil, Segoe UI Emoji" font-size="20px" fill="#1e1e1e" text-anchor="start" style="white-space: pre;" direction="ltr" dominant-baseline="text-before-edge">Create-react-app</text></g><g stroke-linecap="round" transform="translate(418.2608484767811 116.59077713140232) rotate(360.1028684309661 77.048828125 29.987948990610192)"><path d="M14.99 0 C58.06 -0.27, 102.38 -0.25, 139.1 0 M14.99 0 C54.76 -1.02, 95.99 -0.76, 139.1 0 M139.1 0 C148.46 1.86, 152.86 6.18, 154.1 14.99 M139.1 0 C147.54 1.95, 154.46 6.61, 154.1 14.99 M154.1 14.99 C155.09 21.59, 154.44 26.42, 154.1 44.98 M154.1 14.99 C154.21 22.52, 154.97 28.1, 154.1 44.98 M154.1 44.98 C155.67 56.62, 147.62 60.32, 139.1 59.98 M154.1 44.98 C153.13 54.33, 149.73 58.59, 139.1 59.98 M139.1 59.98 C103.5 58.4, 63.78 60.17, 14.99 59.98 M139.1 59.98 C112.79 59.85, 87.01 58.83, 14.99 59.98 M14.99 59.98 C4.56 58.44, -1.17 55.11, 0 44.98 M14.99 59.98 C4.79 61.99, 0.51 56.14, 0 44.98 M0 44.98 C-1.93 36.19, -1.23 25.75, 0 14.99 M0 44.98 C-0.87 35.65, 0.19 28.62, 0 14.99 M0 14.99 C1.38 3.03, 4.43 0.93, 14.99 0 M0 14.99 C2.04 6.2, 2.95 -0.23, 14.99 0" stroke="#1e1e1e" stroke-width="2" fill="none"></path></g><g transform="translate(474.98968453635143 134.07872612201248) rotate(360.1028684309661 20.319992065429688 12.5)"><text x="20.319992065429688" y="0" font-family="Virgil, Segoe UI Emoji" font-size="20px" fill="#1e1e1e" text-anchor="middle" style="white-space: pre;" direction="ltr" dominant-baseline="text-before-edge">SWR</text></g><g stroke-linecap="round" transform="translate(43.71806599824066 115.65958777364551) rotate(360.1028684309661 85.64062499999997 30)"><path d="M15 0 C53.39 -2.03, 95.41 -2.15, 156.28 0 M15 0 C49.97 -0.25, 84.28 1.13, 156.28 0 M156.28 0 C165.21 1.82, 172.11 3.57, 171.28 15 M156.28 0 C166.77 0.76, 170.77 3.39, 171.28 15 M171.28 15 C170.19 22.93, 172.16 33.83, 171.28 45 M171.28 15 C171.91 23.29, 171.76 29.85, 171.28 45 M171.28 45 C171.54 53.92, 167.1 61.14, 156.28 60 M171.28 45 C169.32 56.8, 168.48 58.79, 156.28 60 M156.28 60 C113.09 60.05, 73.01 60.67, 15 60 M156.28 60 C108 60.49, 57.72 60.85, 15 60 M15 60 C5.42 59.99, -0.08 55.32, 0 45 M15 60 C3 57.93, 1.3 55.7, 0 45 M0 45 C1.66 36.23, 1.08 33.25, 0 15 M0 45 C0.83 35.88, -0.12 27.69, 0 15 M0 15 C-0.87 4.25, 5.16 0.39, 15 0 M0 15 C-1.88 3, 3.79 2.26, 15 0" stroke="#1e1e1e" stroke-width="2" fill="none"></path></g><g transform="translate(67.19875600068207 133.1595877736455) rotate(360.1028684309661 62.159934997558565 12.5)"><text x="62.159934997558594" y="0" font-family="Virgil, Segoe UI Emoji" font-size="20px" fill="#1e1e1e" text-anchor="middle" style="white-space: pre;" direction="ltr" dominant-baseline="text-before-edge">react-router</text></g><g stroke-linecap="round" transform="translate(233.53839082530533 115.4544496414274) rotate(360.1028684309661 77.99222100309106 30)"><path d="M15 0 C55.3 -1.86, 93.6 -0.48, 140.98 0 M15 0 C59.54 -0.14, 101.76 -1.64, 140.98 0 M140.98 0 C149.38 -0.39, 154.98 4.59, 155.98 15 M140.98 0 C148.84 0.95, 156.07 3.81, 155.98 15 M155.98 15 C155.74 22.5, 157.02 29.65, 155.98 45 M155.98 15 C156.31 25.97, 155.97 36.88, 155.98 45 M155.98 45 C157.06 53.35, 152.19 61.27, 140.98 60 M155.98 45 C157.21 56.74, 152.07 60.42, 140.98 60 M140.98 60 C113.97 57.31, 88.82 57.9, 15 60 M140.98 60 C111.75 61.22, 80.82 60.2, 15 60 M15 60 C5.18 60.5, 0.28 56.89, 0 45 M15 60 C3.72 58.05, 1.59 55.67, 0 45 M0 45 C1.32 35.38, 1.09 30.67, 0 15 M0 45 C1.08 37.85, 0.15 31.79, 0 15 M0 15 C-0.68 5.07, 6.76 -0.08, 15 0 M0 15 C0.89 4.35, 7.18 1.09, 15 0" stroke="#1e1e1e" stroke-width="2" fill="none"></path></g><g transform="translate(272.0206478391385 132.9544496414274) rotate(360.1028684309661 39.50996398925781 12.5)"><text x="39.50996398925781" y="0" font-family="Virgil, Segoe UI Emoji" font-size="20px" fill="#1e1e1e" text-anchor="middle" style="white-space: pre;" direction="ltr" dominant-baseline="text-before-edge">zustand</text></g><g transform="translate(467.9875972482406 217.1752127736455) rotate(0 25.14997100830078 12.5)"><text x="0" y="0" font-family="Virgil, Segoe UI Emoji" font-size="20px" fill="#1e1e1e" text-anchor="start" style="white-space: pre;" direction="ltr" dominant-baseline="text-before-edge">recoil</text></g><g stroke-linecap="round" transform="translate(419.5403316232405 199.9799002736455) rotate(360.1028684309661 77.048828125 30.5703125)"><path d="M15.29 0 C62.01 -0.49, 107.18 1.57, 138.81 0 M15.29 0 C51.02 0.04, 85.94 0, 138.81 0 M138.81 0 C149.63 0.51, 155.83 5.14, 154.1 15.29 M138.81 0 C147.01 -0.16, 154.12 6.1, 154.1 15.29 M154.1 15.29 C152.91 27.36, 156 39.53, 154.1 45.86 M154.1 15.29 C154.52 24.2, 153.57 33.52, 154.1 45.86 M154.1 45.86 C152.77 55.83, 150.63 60.8, 138.81 61.14 M154.1 45.86 C153.59 54.3, 148.29 60.76, 138.81 61.14 M138.81 61.14 C99.35 63.22, 57.54 61.23, 15.29 61.14 M138.81 61.14 C98.96 62.42, 59.25 62.41, 15.29 61.14 M15.29 61.14 C6.13 62.21, 1.9 57.56, 0 45.86 M15.29 61.14 C4.21 59.77, -2.11 54.73, 0 45.86 M0 45.86 C-0.74 33.65, -0.07 22.12, 0 15.29 M0 45.86 C0.89 34.48, 0.74 24.78, 0 15.29 M0 15.29 C-0.3 4.53, 5.68 -0.99, 15.29 0 M0 15.29 C-1.05 7.3, 6.96 -1.79, 15.29 0" stroke="#1e1e1e" stroke-width="2" fill="none"></path></g><g stroke-linecap="round" transform="translate(47.667284748240604 38.54630652364551) rotate(0 170.970703125 28.328125)"><path d="M14.16 0 C131.32 1.77, 249.38 2.4, 327.78 0 M14.16 0 C108.44 0.83, 202.26 0.87, 327.78 0 M327.78 0 C338.39 0.16, 342.72 4.72, 341.94 14.16 M327.78 0 C335.44 -2.15, 342.52 4.66, 341.94 14.16 M341.94 14.16 C341.1 22.31, 340.68 29.4, 341.94 42.49 M341.94 14.16 C341.73 21.83, 341.93 30.39, 341.94 42.49 M341.94 42.49 C343.48 53.21, 335.78 56.03, 327.78 56.66 M341.94 42.49 C340.54 51.08, 337.78 57.96, 327.78 56.66 M327.78 56.66 C231.7 57.78, 137.69 59.07, 14.16 56.66 M327.78 56.66 C225.74 57.28, 121.71 57.52, 14.16 56.66 M14.16 56.66 C2.94 55.43, -1.64 53.36, 0 42.49 M14.16 56.66 C3.09 56.5, 1.27 52.17, 0 42.49 M0 42.49 C-0.06 35.85, 0.89 26.84, 0 14.16 M0 42.49 C0.96 32.89, -0.26 25.96, 0 14.16 M0 14.16 C-1.91 2.85, 3.64 1.87, 14.16 0 M0 14.16 C2.02 6.58, 3.24 -1.78, 14.16 0" stroke="#1e1e1e" stroke-width="2" fill="none"></path></g><g transform="translate(169.07803609101404 54.37443152364551) rotate(0 49.55995178222656 12.5)"><text x="49.55995178222656" y="0" font-family="Virgil, Segoe UI Emoji" font-size="20px" fill="#1e1e1e" text-anchor="middle" style="white-space: pre;" direction="ltr" dominant-baseline="text-before-edge">ant-design</text></g><g stroke-linecap="round" transform="translate(416.5286128732405 37.03068152364551) rotate(360.1028684309661 77.048828125 30.5703125)"><path d="M15.29 0 C39.04 1.53, 65.7 -1.3, 138.81 0 M15.29 0 C61.29 0.24, 107.09 2.02, 138.81 0 M138.81 0 C149.22 1.38, 154.31 6.9, 154.1 15.29 M138.81 0 C150.7 1.06, 154.31 6.83, 154.1 15.29 M154.1 15.29 C155.25 26.95, 154.88 37.69, 154.1 45.86 M154.1 15.29 C154.76 24.09, 153.53 33.64, 154.1 45.86 M154.1 45.86 C154.43 54.88, 148.32 60.02, 138.81 61.14 M154.1 45.86 C156.29 56.32, 148.9 63.08, 138.81 61.14 M138.81 61.14 C95.2 59.87, 52.2 61.05, 15.29 61.14 M138.81 61.14 C93.11 60.47, 47.24 60.65, 15.29 61.14 M15.29 61.14 C4.64 60.47, 1.84 57.26, 0 45.86 M15.29 61.14 C4.54 59.72, 1.29 54.6, 0 45.86 M0 45.86 C-0.15 34.7, 1.64 24.79, 0 15.29 M0 45.86 C-0.28 35.8, -0.53 27.39, 0 15.29 M0 15.29 C1.25 4.36, 4.82 1.03, 15.29 0 M0 15.29 C0.62 7.28, 5.09 -1.71, 15.29 0" stroke="#1e1e1e" stroke-width="2" fill="none"></path></g><g transform="translate(474.6174648019514 55.10099402364551) rotate(360.1028684309661 18.959976196289062 12.5)"><text x="18.959976196289062" y="0" font-family="Virgil, Segoe UI Emoji" font-size="20px" fill="#1e1e1e" text-anchor="middle" style="white-space: pre;" direction="ltr" dominant-baseline="text-before-edge">less</text></g></svg>